<svg width="160" height="63" viewBox="0 0 160 63" fill="none" xmlns="http://www.w3.org/2000/svg">
<path d="M18.784 16.688C19.408 16.688 19.936 16.844 20.368 17.156C20.8 17.444 21.016 17.804 21.016 18.236C21.016 19.004 20.776 19.628 20.296 20.108C19.816 20.564 19.132 20.792 18.244 20.792C16.852 20.792 15.796 20.804 15.076 20.828C15.028 21.116 14.812 22.412 14.428 24.716C13.996 27.284 13.732 28.856 13.636 29.432L12.88 34.148C12.352 37.676 11.932 40.628 11.62 43.004C12.124 42.98 12.808 42.968 13.672 42.968C14.944 42.968 15.808 43.136 16.264 43.472C16.72 43.808 16.948 44.312 16.948 44.984C16.948 45.608 16.696 46.136 16.192 46.568C15.712 47 15.028 47.216 14.14 47.216C13.54 47.216 12.592 47.192 11.296 47.144C10.096 47.096 9.304 47.072 8.92 47.072C7.408 47.072 5.752 47.204 3.952 47.468C3.16 47.588 2.596 47.648 2.26 47.648C1.732 47.648 1.288 47.504 0.928 47.216C0.568 46.928 0.388 46.508 0.388 45.956C0.388 45.092 0.772 44.42 1.54 43.94C2.308 43.46 3.388 43.208 4.78 43.184L6.472 43.148L6.58 42.356C7.156 38.516 7.576 35.804 7.84 34.22L8.632 29.504C9.112 26.72 9.544 23.852 9.928 20.9L6.904 20.936C6.04 20.936 5.44 20.804 5.104 20.54C4.792 20.252 4.636 19.856 4.636 19.352C4.636 17.72 5.812 16.844 8.164 16.724C9.268 16.676 10.612 16.652 12.196 16.652L18.784 16.688ZM23.1082 47.18C22.1962 47.18 21.5482 46.7 21.1642 45.74C20.8042 44.78 20.6242 43.244 20.6242 41.132C20.6242 38.012 21.0682 35.048 21.9562 32.24C22.1722 31.544 22.5202 31.04 23.0002 30.728C23.5042 30.392 24.2002 30.224 25.0882 30.224C25.5682 30.224 25.9042 30.284 26.0962 30.404C26.2882 30.524 26.3842 30.752 26.3842 31.088C26.3842 31.472 26.2042 32.336 25.8442 33.68C25.6042 34.64 25.4122 35.48 25.2682 36.2C25.1242 36.92 25.0042 37.808 24.9082 38.864C25.7002 36.8 26.5882 35.12 27.5722 33.824C28.5562 32.528 29.5162 31.604 30.4522 31.052C31.4122 30.5 32.2882 30.224 33.0802 30.224C34.6402 30.224 35.4202 31.004 35.4202 32.564C35.4202 33.5 35.1562 35.192 34.6282 37.64C34.1722 39.728 33.9442 41.108 33.9442 41.78C33.9442 42.74 34.2922 43.22 34.9882 43.22C35.4682 43.22 36.0322 42.932 36.6802 42.356C37.3522 41.756 38.2402 40.796 39.3442 39.476C39.6322 39.14 39.9562 38.972 40.3162 38.972C40.6282 38.972 40.8682 39.116 41.0362 39.404C41.2282 39.692 41.3242 40.088 41.3242 40.592C41.3242 41.552 41.0962 42.296 40.6402 42.824C39.6082 44.096 38.4922 45.14 37.2922 45.956C36.1162 46.772 34.7722 47.18 33.2602 47.18C32.0362 47.18 31.1122 46.832 30.4882 46.136C29.8642 45.416 29.5522 44.384 29.5522 43.04C29.5522 42.368 29.7202 41.168 30.0562 39.44C30.3682 37.928 30.5242 36.884 30.5242 36.308C30.5242 35.924 30.3922 35.732 30.1282 35.732C29.8162 35.732 29.3722 36.14 28.7962 36.956C28.2442 37.748 27.6682 38.804 27.0682 40.124C26.4922 41.444 26.0242 42.836 25.6642 44.3C25.4002 45.428 25.0882 46.196 24.7282 46.604C24.3922 46.988 23.8522 47.18 23.1082 47.18ZM45.1076 47.972C43.8596 47.972 42.8996 47.684 42.2276 47.108C41.5796 46.532 41.2556 45.884 41.2556 45.164C41.2556 44.54 41.4836 44 41.9396 43.544C42.3956 43.088 43.0676 42.86 43.9556 42.86C44.2676 42.86 44.6276 42.896 45.0356 42.968C45.4676 43.016 45.7916 43.052 46.0076 43.076C45.9836 42.452 45.8396 41.864 45.5756 41.312C45.3356 40.76 45.0236 40.232 44.6396 39.728C44.2556 39.2 43.8956 38.744 43.5596 38.36C42.8156 39.776 42.0716 40.952 41.3276 41.888C40.6076 42.824 39.8156 43.712 38.9516 44.552C38.5196 44.984 38.0636 45.2 37.5836 45.2C37.1996 45.2 36.8876 45.068 36.6476 44.804C36.4076 44.516 36.2876 44.168 36.2876 43.76C36.2876 43.28 36.4556 42.836 36.7916 42.428L37.2596 41.852C38.5796 40.22 39.5756 38.876 40.2476 37.82C40.6556 37.124 41.1356 36.2 41.6876 35.048C42.2396 33.872 42.7796 32.66 43.3076 31.412C43.7636 30.356 44.7116 29.828 46.1516 29.828C46.8236 29.828 47.2916 29.888 47.5556 30.008C47.8196 30.128 47.9516 30.32 47.9516 30.584C47.9516 30.728 47.9036 30.956 47.8076 31.268C47.7116 31.58 47.5796 31.892 47.4116 32.204C46.9796 33.068 46.7636 33.8 46.7636 34.4C46.7636 34.76 46.8836 35.156 47.1236 35.588C47.3876 36.02 47.7836 36.56 48.3116 37.208C49.0796 38.216 49.6556 39.08 50.0396 39.8C50.4476 40.496 50.6516 41.264 50.6516 42.104C50.6516 42.344 50.6276 42.68 50.5796 43.112C51.7556 42.656 53.1356 41.444 54.7196 39.476C55.0076 39.14 55.3316 38.972 55.6916 38.972C56.0036 38.972 56.2436 39.116 56.4116 39.404C56.6036 39.692 56.6996 40.088 56.6996 40.592C56.6996 41.504 56.4716 42.248 56.0156 42.824C54.8156 44.312 53.6636 45.332 52.5596 45.884C51.4796 46.412 50.1356 46.7 48.5276 46.748C47.5676 47.564 46.4276 47.972 45.1076 47.972ZM69.8309 38.972C70.1429 38.972 70.3829 39.116 70.5509 39.404C70.7429 39.692 70.8389 40.088 70.8389 40.592C70.8389 41.552 70.6109 42.296 70.1549 42.824C69.1229 44.096 67.9949 45.14 66.7709 45.956C65.5469 46.772 64.1429 47.18 62.5589 47.18C57.6629 47.18 55.2149 43.736 55.2149 36.848C55.2149 35.792 55.2509 34.724 55.3229 33.644H53.9189C53.1989 33.644 52.7069 33.512 52.4429 33.248C52.2029 32.984 52.0829 32.564 52.0829 31.988C52.0829 30.644 52.6229 29.972 53.7029 29.972H55.7549C56.1629 27.332 56.7869 24.92 57.6269 22.736C58.4669 20.552 59.4749 18.812 60.6509 17.516C61.8509 16.22 63.1349 15.572 64.5029 15.572C65.5109 15.572 66.3029 16.016 66.8789 16.904C67.4549 17.792 67.7429 18.908 67.7429 20.252C67.7429 23.972 66.1829 27.212 63.0629 29.972H67.0949C67.4789 29.972 67.7549 30.056 67.9229 30.224C68.0909 30.392 68.1749 30.704 68.1749 31.16C68.1749 32.816 66.8189 33.644 64.1069 33.644H59.7149C59.6669 34.844 59.6429 35.78 59.6429 36.452C59.6429 38.948 59.9309 40.7 60.5069 41.708C61.1069 42.716 62.0429 43.22 63.3149 43.22C64.3469 43.22 65.2589 42.908 66.0509 42.284C66.8429 41.66 67.7789 40.724 68.8589 39.476C69.1469 39.14 69.4709 38.972 69.8309 38.972ZM63.5309 19.028C63.1709 19.028 62.7629 19.484 62.3069 20.396C61.8749 21.284 61.4549 22.532 61.0469 24.14C60.6629 25.724 60.3389 27.488 60.0749 29.432C61.4909 28.208 62.5469 26.84 63.2429 25.328C63.9629 23.792 64.3229 22.4 64.3229 21.152C64.3229 19.736 64.0589 19.028 63.5309 19.028ZM95.8535 36.056C95.9255 36.032 96.0455 36.02 96.2135 36.02C96.5735 36.02 96.8495 36.14 97.0415 36.38C97.2335 36.62 97.3295 36.944 97.3295 37.352C97.3295 38.096 97.1855 38.684 96.8975 39.116C96.6095 39.524 96.1775 39.824 95.6015 40.016C94.4975 40.376 93.3215 40.556 92.0735 40.556C91.0175 40.556 90.0215 40.412 89.0855 40.124C88.3895 41.252 87.6215 42.416 86.7815 43.616C85.8215 44.984 84.9935 45.92 84.2975 46.424C83.6255 46.928 82.8575 47.18 81.9935 47.18C81.0335 47.18 80.3015 46.808 79.7975 46.064C79.3175 45.32 79.0175 44.096 78.8975 42.392L78.7175 39.764C77.9735 41.78 77.3015 43.316 76.7015 44.372C76.1255 45.428 75.5375 46.16 74.9375 46.568C74.3615 46.976 73.6775 47.18 72.8855 47.18C71.9015 47.18 71.1215 46.796 70.5455 46.028C69.9935 45.26 69.6455 44.048 69.5015 42.392C69.2135 39.032 69.0695 36.092 69.0695 33.572V32.312C69.0935 31.52 69.3095 30.968 69.7175 30.656C70.1255 30.344 70.7375 30.188 71.5535 30.188C72.1775 30.188 72.6335 30.332 72.9215 30.62C73.2335 30.884 73.3895 31.34 73.3895 31.988C73.3895 34.748 73.5575 38.336 73.8935 42.752C75.5255 39.32 77.0255 35.744 78.3935 32.024C78.6575 31.304 78.9695 30.824 79.3295 30.584C79.7135 30.32 80.1695 30.188 80.6975 30.188C81.3455 30.188 81.7895 30.32 82.0295 30.584C82.2935 30.848 82.4255 31.316 82.4255 31.988C82.4255 34.748 82.5935 38.336 82.9295 42.752C84.3695 40.616 85.4495 38.912 86.1695 37.64C85.8095 36.944 85.6295 36.116 85.6295 35.156C85.6295 34.34 85.8095 33.548 86.1695 32.78C86.5295 32.012 87.0215 31.388 87.6455 30.908C88.2695 30.428 88.9775 30.188 89.7695 30.188C90.4655 30.188 91.0295 30.44 91.4615 30.944C91.8935 31.424 92.1095 32.132 92.1095 33.068C92.1095 34.148 91.8215 35.384 91.2455 36.776C92.1575 36.728 93.3695 36.548 94.8815 36.236L95.8535 36.056ZM98.9206 27.848C97.9126 27.848 97.1566 27.62 96.6526 27.164C96.1486 26.684 95.8966 26.024 95.8966 25.184C95.8966 24.344 96.2206 23.648 96.8686 23.096C97.5406 22.52 98.3686 22.232 99.3526 22.232C100.241 22.232 100.961 22.448 101.513 22.88C102.065 23.312 102.341 23.924 102.341 24.716C102.341 25.676 102.029 26.444 101.405 27.02C100.781 27.572 99.9526 27.848 98.9206 27.848ZM98.6326 47.18C97.0726 47.18 95.9326 46.628 95.2126 45.524C94.5166 44.42 94.1686 42.956 94.1686 41.132C94.1686 40.052 94.3006 38.672 94.5646 36.992C94.8526 35.288 95.2126 33.704 95.6446 32.24C95.8606 31.472 96.1486 30.944 96.5086 30.656C96.8686 30.368 97.4446 30.224 98.2366 30.224C99.4606 30.224 100.073 30.632 100.073 31.448C100.073 32.048 99.8446 33.44 99.3886 35.624C98.8126 38.264 98.5246 40.052 98.5246 40.988C98.5246 41.708 98.6206 42.26 98.8126 42.644C99.0046 43.028 99.3286 43.22 99.7846 43.22C100.217 43.22 100.757 42.92 101.405 42.32C102.053 41.72 102.917 40.772 103.997 39.476C104.285 39.14 104.609 38.972 104.969 38.972C105.281 38.972 105.521 39.116 105.689 39.404C105.881 39.692 105.977 40.088 105.977 40.592C105.977 41.552 105.749 42.296 105.293 42.824C102.917 45.728 100.697 47.18 98.6326 47.18ZM130.388 38.972C130.7 38.972 130.94 39.116 131.108 39.404C131.3 39.692 131.396 40.088 131.396 40.592C131.396 41.552 131.168 42.296 130.712 42.824C129.68 44.096 128.552 45.14 127.328 45.956C126.104 46.772 124.7 47.18 123.116 47.18C120.188 47.18 118.148 45.956 116.996 43.508C116.372 44.516 115.544 45.38 114.512 46.1C113.48 46.82 112.376 47.18 111.2 47.18C108.92 47.18 107.24 46.256 106.16 44.408C105.104 42.536 104.576 40.016 104.576 36.848C104.576 35.672 104.636 34.364 104.756 32.924H103.28C102.56 32.924 102.068 32.792 101.804 32.528C101.564 32.264 101.444 31.844 101.444 31.268C101.444 29.924 101.984 29.252 103.064 29.252H105.26C105.716 26.708 106.352 24.404 107.168 22.34C107.984 20.276 108.968 18.632 110.12 17.408C111.272 16.184 112.52 15.572 113.864 15.572C114.872 15.572 115.664 16.016 116.24 16.904C116.816 17.792 117.104 18.908 117.104 20.252C117.104 23.636 115.796 26.636 113.18 29.252H116.456C116.912 26.708 117.548 24.404 118.364 22.34C119.18 20.276 120.164 18.632 121.316 17.408C122.468 16.184 123.716 15.572 125.06 15.572C126.068 15.572 126.86 16.016 127.436 16.904C128.012 17.792 128.3 18.908 128.3 20.252C128.3 23.636 126.992 26.636 124.376 29.252H127.652C128.036 29.252 128.312 29.336 128.48 29.504C128.648 29.672 128.732 29.984 128.732 30.44C128.732 32.096 127.376 32.924 124.664 32.924H120.308C120.236 34.076 120.2 35.252 120.2 36.452C120.2 38.948 120.488 40.7 121.064 41.708C121.664 42.716 122.6 43.22 123.872 43.22C124.904 43.22 125.816 42.908 126.608 42.284C127.4 41.66 128.336 40.724 129.416 39.476C129.704 39.14 130.028 38.972 130.388 38.972ZM112.892 19.028C112.532 19.028 112.124 19.484 111.668 20.396C111.236 21.284 110.816 22.532 110.408 24.14C110.024 25.724 109.7 27.488 109.436 29.432C110.852 28.208 111.908 26.84 112.604 25.328C113.324 23.792 113.684 22.4 113.684 21.152C113.684 19.736 113.42 19.028 112.892 19.028ZM124.088 19.028C123.728 19.028 123.32 19.484 122.864 20.396C122.432 21.284 122.012 22.532 121.604 24.14C121.22 25.724 120.896 27.488 120.632 29.432C122.048 28.208 123.104 26.84 123.8 25.328C124.52 23.792 124.88 22.4 124.88 21.152C124.88 19.736 124.616 19.028 124.088 19.028ZM111.956 43.22C112.676 43.22 113.396 42.884 114.116 42.212C114.836 41.54 115.448 40.712 115.952 39.728C115.832 38.984 115.772 38.024 115.772 36.848C115.772 35.672 115.832 34.364 115.952 32.924H109.112C109.04 34.076 109.004 35.252 109.004 36.452C109.004 38.876 109.256 40.616 109.76 41.672C110.288 42.704 111.02 43.22 111.956 43.22ZM144.538 38.972C144.85 38.972 145.09 39.116 145.258 39.404C145.45 39.692 145.546 40.088 145.546 40.592C145.546 41.552 145.318 42.296 144.862 42.824C143.974 43.904 142.714 44.9 141.082 45.812C139.474 46.724 137.746 47.18 135.898 47.18C133.378 47.18 131.422 46.496 130.03 45.128C128.638 43.76 127.942 41.888 127.942 39.512C127.942 37.856 128.29 36.32 128.986 34.904C129.682 33.464 130.642 32.324 131.866 31.484C133.114 30.644 134.518 30.224 136.078 30.224C137.47 30.224 138.586 30.644 139.426 31.484C140.266 32.3 140.686 33.416 140.686 34.832C140.686 36.488 140.086 37.916 138.886 39.116C137.71 40.292 135.706 41.228 132.874 41.924C133.474 43.028 134.614 43.58 136.294 43.58C137.374 43.58 138.598 43.208 139.966 42.464C141.358 41.696 142.558 40.7 143.566 39.476C143.854 39.14 144.178 38.972 144.538 38.972ZM135.466 33.752C134.578 33.752 133.822 34.268 133.198 35.3C132.598 36.332 132.298 37.58 132.298 39.044V39.116C133.714 38.78 134.83 38.276 135.646 37.604C136.462 36.932 136.87 36.152 136.87 35.264C136.87 34.808 136.738 34.448 136.474 34.184C136.234 33.896 135.898 33.752 135.466 33.752ZM157.159 35.156C157.687 35.156 158.131 35.348 158.491 35.732C158.875 36.092 159.067 36.548 159.067 37.1C159.067 37.412 158.995 37.748 158.851 38.108C158.467 38.996 157.927 39.74 157.231 40.34C156.535 40.94 155.767 41.24 154.927 41.24C154.255 41.24 153.679 41 153.199 40.52C152.743 40.04 152.515 39.392 152.515 38.576C152.515 38.12 152.539 37.628 152.587 37.1C152.635 36.716 152.659 36.452 152.659 36.308C152.659 36.116 152.611 35.972 152.515 35.876C152.443 35.78 152.347 35.732 152.227 35.732C151.891 35.732 151.435 36.14 150.859 36.956C150.283 37.748 149.707 38.804 149.131 40.124C148.555 41.444 148.087 42.836 147.727 44.3C147.463 45.452 147.163 46.22 146.827 46.604C146.491 46.988 145.939 47.18 145.171 47.18C144.259 47.18 143.611 46.7 143.227 45.74C142.867 44.78 142.687 43.244 142.687 41.132C142.687 38.012 143.131 35.048 144.019 32.24C144.235 31.544 144.583 31.04 145.063 30.728C145.567 30.392 146.263 30.224 147.151 30.224C147.631 30.224 147.967 30.284 148.159 30.404C148.351 30.524 148.447 30.752 148.447 31.088C148.447 31.472 148.267 32.336 147.907 33.68C147.667 34.64 147.475 35.48 147.331 36.2C147.187 36.92 147.067 37.808 146.971 38.864C147.763 36.8 148.651 35.12 149.635 33.824C150.619 32.528 151.579 31.604 152.515 31.052C153.451 30.5 154.303 30.224 155.071 30.224C155.767 30.224 156.295 30.428 156.655 30.836C157.039 31.22 157.231 31.796 157.231 32.564C157.231 33.02 157.099 33.884 156.835 35.156H157.159Z" fill="#333333"/>
</svg>
