<svg width="160" height="33" viewBox="0 0 160 33" fill="none" xmlns="http://www.w3.org/2000/svg">
<path d="M18.7842 1.68802C19.4082 1.68802 19.9362 1.84402 20.3682 2.15602C20.8002 2.44402 21.0162 2.80402 21.0162 3.23602C21.0162 4.00402 20.7762 4.62802 20.2962 5.10802C19.8162 5.56402 19.1322 5.79202 18.2442 5.79202C16.8522 5.79202 15.7962 5.80402 15.0762 5.82802C15.0282 6.11602 14.8122 7.41202 14.4282 9.71602C13.9962 12.284 13.7322 13.856 13.6362 14.432L12.8802 19.148C12.3522 22.676 11.9322 25.628 11.6202 28.004C12.1242 27.98 12.8082 27.968 13.6722 27.968C14.9442 27.968 15.8082 28.136 16.2642 28.472C16.7202 28.808 16.9482 29.312 16.9482 29.984C16.9482 30.608 16.6962 31.136 16.1922 31.568C15.7122 32 15.0282 32.216 14.1402 32.216C13.5402 32.216 12.5922 32.192 11.2962 32.144C10.0962 32.096 9.30418 32.072 8.92018 32.072C7.40818 32.072 5.75218 32.204 3.95218 32.468C3.16018 32.588 2.59618 32.648 2.26018 32.648C1.73218 32.648 1.28818 32.504 0.928184 32.216C0.568184 31.928 0.388184 31.508 0.388184 30.956C0.388184 30.092 0.772184 29.42 1.54018 28.94C2.30818 28.46 3.38818 28.208 4.78018 28.184L6.47218 28.148L6.58018 27.356C7.15618 23.516 7.57618 20.804 7.84018 19.22L8.63218 14.504C9.11218 11.72 9.54418 8.85202 9.92818 5.90002L6.90418 5.93602C6.04018 5.93602 5.44018 5.80402 5.10418 5.54002C4.79218 5.25202 4.63618 4.85602 4.63618 4.35202C4.63618 2.72002 5.81218 1.84402 8.16418 1.72402C9.26818 1.67602 10.6122 1.65202 12.1962 1.65202L18.7842 1.68802Z" fill="black"/>
<path d="M23.1084 32.18C22.1964 32.18 21.5484 31.7 21.1644 30.74C20.8044 29.78 20.6244 28.244 20.6244 26.132C20.6244 23.012 21.0684 20.048 21.9564 17.24C22.1724 16.544 22.5204 16.04 23.0004 15.728C23.5044 15.392 24.2004 15.224 25.0884 15.224C25.5684 15.224 25.9044 15.284 26.0964 15.404C26.2884 15.524 26.3844 15.752 26.3844 16.088C26.3844 16.472 26.2044 17.336 25.8444 18.68C25.6044 19.64 25.4124 20.48 25.2684 21.2C25.1244 21.92 25.0044 22.808 24.9084 23.864C25.7004 21.8 26.5884 20.12 27.5724 18.824C28.5564 17.528 29.5164 16.604 30.4524 16.052C31.4124 15.5 32.2884 15.224 33.0804 15.224C34.6404 15.224 35.4204 16.004 35.4204 17.564C35.4204 18.5 35.1564 20.192 34.6284 22.64C34.1724 24.728 33.9444 26.108 33.9444 26.78C33.9444 27.74 34.2924 28.22 34.9884 28.22C35.4684 28.22 36.0324 27.932 36.6804 27.356C37.3524 26.756 38.2404 25.796 39.3444 24.476C39.6324 24.14 39.9564 23.972 40.3164 23.972C40.6284 23.972 40.8684 24.116 41.0364 24.404C41.2284 24.692 41.3244 25.088 41.3244 25.592C41.3244 26.552 41.0964 27.296 40.6404 27.824C39.6084 29.096 38.4924 30.14 37.2924 30.956C36.1164 31.772 34.7724 32.18 33.2604 32.18C32.0364 32.18 31.1124 31.832 30.4884 31.136C29.8644 30.416 29.5524 29.384 29.5524 28.04C29.5524 27.368 29.7204 26.168 30.0564 24.44C30.3684 22.928 30.5244 21.884 30.5244 21.308C30.5244 20.924 30.3924 20.732 30.1284 20.732C29.8164 20.732 29.3724 21.14 28.7964 21.956C28.2444 22.748 27.6684 23.804 27.0684 25.124C26.4924 26.444 26.0244 27.836 25.6644 29.3C25.4004 30.428 25.0884 31.196 24.7284 31.604C24.3924 31.988 23.8524 32.18 23.1084 32.18Z" fill="black"/>
<path d="M45.1078 32.972C43.8598 32.972 42.8998 32.684 42.2278 32.108C41.5798 31.532 41.2558 30.884 41.2558 30.164C41.2558 29.54 41.4838 29 41.9398 28.544C42.3958 28.088 43.0678 27.86 43.9558 27.86C44.2678 27.86 44.6278 27.896 45.0358 27.968C45.4678 28.016 45.7918 28.052 46.0078 28.076C45.9838 27.452 45.8398 26.864 45.5758 26.312C45.3358 25.76 45.0238 25.232 44.6398 24.728C44.2558 24.2 43.8958 23.744 43.5598 23.36C42.8158 24.776 42.0718 25.952 41.3278 26.888C40.6078 27.824 39.8158 28.712 38.9518 29.552C38.5198 29.984 38.0638 30.2 37.5838 30.2C37.1998 30.2 36.8878 30.068 36.6478 29.804C36.4078 29.516 36.2878 29.168 36.2878 28.76C36.2878 28.28 36.4558 27.836 36.7918 27.428L37.2598 26.852C38.5798 25.22 39.5758 23.876 40.2478 22.82C40.6558 22.124 41.1358 21.2 41.6878 20.048C42.2398 18.872 42.7798 17.66 43.3078 16.412C43.7638 15.356 44.7118 14.828 46.1518 14.828C46.8238 14.828 47.2918 14.888 47.5558 15.008C47.8198 15.128 47.9518 15.32 47.9518 15.584C47.9518 15.728 47.9038 15.956 47.8078 16.268C47.7118 16.58 47.5798 16.892 47.4118 17.204C46.9798 18.068 46.7638 18.8 46.7638 19.4C46.7638 19.76 46.8838 20.156 47.1238 20.588C47.3878 21.02 47.7838 21.56 48.3118 22.208C49.0798 23.216 49.6558 24.08 50.0398 24.8C50.4478 25.496 50.6518 26.264 50.6518 27.104C50.6518 27.344 50.6278 27.68 50.5798 28.112C51.7558 27.656 53.1358 26.444 54.7198 24.476C55.0078 24.14 55.3318 23.972 55.6918 23.972C56.0038 23.972 56.2438 24.116 56.4118 24.404C56.6038 24.692 56.6998 25.088 56.6998 25.592C56.6998 26.504 56.4718 27.248 56.0158 27.824C54.8158 29.312 53.6638 30.332 52.5598 30.884C51.4798 31.412 50.1358 31.7 48.5278 31.748C47.5678 32.564 46.4278 32.972 45.1078 32.972Z" fill="black"/>
<path d="M69.8311 23.972C70.1431 23.972 70.3831 24.116 70.5511 24.404C70.7431 24.692 70.8391 25.088 70.8391 25.592C70.8391 26.552 70.6111 27.296 70.1551 27.824C69.1231 29.096 67.9951 30.14 66.7711 30.956C65.5471 31.772 64.1431 32.18 62.5591 32.18C57.6631 32.18 55.2151 28.736 55.2151 21.848C55.2151 20.792 55.2511 19.724 55.3231 18.644H53.9191C53.1991 18.644 52.7071 18.512 52.4431 18.248C52.2031 17.984 52.0831 17.564 52.0831 16.988C52.0831 15.644 52.6231 14.972 53.7031 14.972H55.7551C56.1631 12.332 56.7871 9.92002 57.6271 7.73602C58.4671 5.55202 59.4751 3.81202 60.6511 2.51602C61.8511 1.22002 63.1351 0.572021 64.5031 0.572021C65.5111 0.572021 66.3031 1.01602 66.8791 1.90402C67.4551 2.79202 67.7431 3.90802 67.7431 5.25202C67.7431 8.97202 66.1831 12.212 63.0631 14.972H67.0951C67.4791 14.972 67.7551 15.056 67.9231 15.224C68.0911 15.392 68.1751 15.704 68.1751 16.16C68.1751 17.816 66.8191 18.644 64.1071 18.644H59.7151C59.6671 19.844 59.6431 20.78 59.6431 21.452C59.6431 23.948 59.9311 25.7 60.5071 26.708C61.1071 27.716 62.0431 28.22 63.3151 28.22C64.3471 28.22 65.2591 27.908 66.0511 27.284C66.8431 26.66 67.7791 25.724 68.8591 24.476C69.1471 24.14 69.4711 23.972 69.8311 23.972ZM63.5311 4.02802C63.1711 4.02802 62.7631 4.48402 62.3071 5.39602C61.8751 6.28402 61.4551 7.53202 61.0471 9.14002C60.6631 10.724 60.3391 12.488 60.0751 14.432C61.4911 13.208 62.5471 11.84 63.2431 10.328C63.9631 8.79202 64.3231 7.40002 64.3231 6.15202C64.3231 4.73602 64.0591 4.02802 63.5311 4.02802Z" fill="black"/>
<path d="M95.8537 21.056C95.9257 21.032 96.0457 21.02 96.2137 21.02C96.5737 21.02 96.8497 21.14 97.0417 21.38C97.2337 21.62 97.3297 21.944 97.3297 22.352C97.3297 23.096 97.1857 23.684 96.8977 24.116C96.6097 24.524 96.1777 24.824 95.6017 25.016C94.4977 25.376 93.3217 25.556 92.0737 25.556C91.0177 25.556 90.0217 25.412 89.0857 25.124C88.3897 26.252 87.6217 27.416 86.7817 28.616C85.8217 29.984 84.9937 30.92 84.2977 31.424C83.6257 31.928 82.8577 32.18 81.9937 32.18C81.0337 32.18 80.3017 31.808 79.7977 31.064C79.3177 30.32 79.0177 29.096 78.8977 27.392L78.7177 24.764C77.9737 26.78 77.3017 28.316 76.7017 29.372C76.1257 30.428 75.5377 31.16 74.9377 31.568C74.3617 31.976 73.6777 32.18 72.8857 32.18C71.9017 32.18 71.1217 31.796 70.5457 31.028C69.9937 30.26 69.6457 29.048 69.5017 27.392C69.2137 24.032 69.0697 21.092 69.0697 18.572V17.312C69.0937 16.52 69.3097 15.968 69.7177 15.656C70.1257 15.344 70.7377 15.188 71.5537 15.188C72.1777 15.188 72.6337 15.332 72.9217 15.62C73.2337 15.884 73.3897 16.34 73.3897 16.988C73.3897 19.748 73.5577 23.336 73.8937 27.752C75.5257 24.32 77.0257 20.744 78.3937 17.024C78.6577 16.304 78.9697 15.824 79.3297 15.584C79.7137 15.32 80.1697 15.188 80.6977 15.188C81.3457 15.188 81.7897 15.32 82.0297 15.584C82.2937 15.848 82.4257 16.316 82.4257 16.988C82.4257 19.748 82.5937 23.336 82.9297 27.752C84.3697 25.616 85.4497 23.912 86.1697 22.64C85.8097 21.944 85.6297 21.116 85.6297 20.156C85.6297 19.34 85.8097 18.548 86.1697 17.78C86.5297 17.012 87.0217 16.388 87.6457 15.908C88.2697 15.428 88.9777 15.188 89.7697 15.188C90.4657 15.188 91.0297 15.44 91.4617 15.944C91.8937 16.424 92.1097 17.132 92.1097 18.068C92.1097 19.148 91.8217 20.384 91.2457 21.776C92.1577 21.728 93.3697 21.548 94.8817 21.236L95.8537 21.056Z" fill="black"/>
<path d="M98.9207 12.848C97.9127 12.848 97.1567 12.62 96.6527 12.164C96.1487 11.684 95.8967 11.024 95.8967 10.184C95.8967 9.34402 96.2207 8.64802 96.8687 8.09602C97.5407 7.52002 98.3687 7.23202 99.3527 7.23202C100.241 7.23202 100.961 7.44802 101.513 7.88002C102.065 8.31202 102.341 8.92402 102.341 9.71602C102.341 10.676 102.029 11.444 101.405 12.02C100.781 12.572 99.9527 12.848 98.9207 12.848ZM98.6327 32.18C97.0727 32.18 95.9327 31.628 95.2127 30.524C94.5167 29.42 94.1687 27.956 94.1687 26.132C94.1687 25.052 94.3007 23.672 94.5647 21.992C94.8527 20.288 95.2127 18.704 95.6447 17.24C95.8607 16.472 96.1487 15.944 96.5087 15.656C96.8687 15.368 97.4447 15.224 98.2367 15.224C99.4607 15.224 100.073 15.632 100.073 16.448C100.073 17.048 99.8447 18.44 99.3887 20.624C98.8127 23.264 98.5247 25.052 98.5247 25.988C98.5247 26.708 98.6207 27.26 98.8127 27.644C99.0047 28.028 99.3287 28.22 99.7847 28.22C100.217 28.22 100.757 27.92 101.405 27.32C102.053 26.72 102.917 25.772 103.997 24.476C104.285 24.14 104.609 23.972 104.969 23.972C105.281 23.972 105.521 24.116 105.689 24.404C105.881 24.692 105.977 25.088 105.977 25.592C105.977 26.552 105.749 27.296 105.293 27.824C102.917 30.728 100.697 32.18 98.6327 32.18Z" fill="black"/>
<path d="M130.388 23.972C130.7 23.972 130.94 24.116 131.108 24.404C131.3 24.692 131.396 25.088 131.396 25.592C131.396 26.552 131.168 27.296 130.712 27.824C129.68 29.096 128.552 30.14 127.328 30.956C126.104 31.772 124.7 32.18 123.116 32.18C120.188 32.18 118.148 30.956 116.996 28.508C116.372 29.516 115.544 30.38 114.512 31.1C113.48 31.82 112.376 32.18 111.2 32.18C108.92 32.18 107.24 31.256 106.16 29.408C105.104 27.536 104.576 25.016 104.576 21.848C104.576 20.672 104.636 19.364 104.756 17.924H103.28C102.56 17.924 102.068 17.792 101.804 17.528C101.564 17.264 101.444 16.844 101.444 16.268C101.444 14.924 101.984 14.252 103.064 14.252H105.26C105.716 11.708 106.352 9.40402 107.168 7.34002C107.984 5.27602 108.968 3.63202 110.12 2.40802C111.272 1.18402 112.52 0.572021 113.864 0.572021C114.872 0.572021 115.664 1.01602 116.24 1.90402C116.816 2.79202 117.104 3.90802 117.104 5.25202C117.104 8.63602 115.796 11.636 113.18 14.252H116.456C116.912 11.708 117.548 9.40402 118.364 7.34002C119.18 5.27602 120.164 3.63202 121.316 2.40802C122.468 1.18402 123.716 0.572021 125.06 0.572021C126.068 0.572021 126.86 1.01602 127.436 1.90402C128.012 2.79202 128.3 3.90802 128.3 5.25202C128.3 8.63602 126.992 11.636 124.376 14.252H127.652C128.036 14.252 128.312 14.336 128.48 14.504C128.648 14.672 128.732 14.984 128.732 15.44C128.732 17.096 127.376 17.924 124.664 17.924H120.308C120.236 19.076 120.2 20.252 120.2 21.452C120.2 23.948 120.488 25.7 121.064 26.708C121.664 27.716 122.6 28.22 123.872 28.22C124.904 28.22 125.816 27.908 126.608 27.284C127.4 26.66 128.336 25.724 129.416 24.476C129.704 24.14 130.028 23.972 130.388 23.972ZM112.892 4.02802C112.532 4.02802 112.124 4.48402 111.668 5.39602C111.236 6.28402 110.816 7.53202 110.408 9.14002C110.024 10.724 109.7 12.488 109.436 14.432C110.852 13.208 111.908 11.84 112.604 10.328C113.324 8.79202 113.684 7.40002 113.684 6.15202C113.684 4.73602 113.42 4.02802 112.892 4.02802ZM124.088 4.02802C123.728 4.02802 123.32 4.48402 122.864 5.39602C122.432 6.28402 122.012 7.53202 121.604 9.14002C121.22 10.724 120.896 12.488 120.632 14.432C122.048 13.208 123.104 11.84 123.8 10.328C124.52 8.79202 124.88 7.40002 124.88 6.15202C124.88 4.73602 124.616 4.02802 124.088 4.02802ZM111.956 28.22C112.676 28.22 113.396 27.884 114.116 27.212C114.836 26.54 115.448 25.712 115.952 24.728C115.832 23.984 115.772 23.024 115.772 21.848C115.772 20.672 115.832 19.364 115.952 17.924H109.112C109.04 19.076 109.004 20.252 109.004 21.452C109.004 23.876 109.256 25.616 109.76 26.672C110.288 27.704 111.02 28.22 111.956 28.22Z" fill="black"/>
<path d="M144.538 23.972C144.85 23.972 145.09 24.116 145.258 24.404C145.45 24.692 145.546 25.088 145.546 25.592C145.546 26.552 145.318 27.296 144.862 27.824C143.974 28.904 142.714 29.9 141.082 30.812C139.474 31.724 137.746 32.18 135.898 32.18C133.378 32.18 131.422 31.496 130.03 30.128C128.638 28.76 127.942 26.888 127.942 24.512C127.942 22.856 128.29 21.32 128.986 19.904C129.682 18.464 130.642 17.324 131.866 16.484C133.114 15.644 134.518 15.224 136.078 15.224C137.47 15.224 138.586 15.644 139.426 16.484C140.266 17.3 140.686 18.416 140.686 19.832C140.686 21.488 140.086 22.916 138.886 24.116C137.71 25.292 135.706 26.228 132.874 26.924C133.474 28.028 134.614 28.58 136.294 28.58C137.374 28.58 138.598 28.208 139.966 27.464C141.358 26.696 142.558 25.7 143.566 24.476C143.854 24.14 144.178 23.972 144.538 23.972ZM135.466 18.752C134.578 18.752 133.822 19.268 133.198 20.3C132.598 21.332 132.298 22.58 132.298 24.044V24.116C133.714 23.78 134.83 23.276 135.646 22.604C136.462 21.932 136.87 21.152 136.87 20.264C136.87 19.808 136.738 19.448 136.474 19.184C136.234 18.896 135.898 18.752 135.466 18.752Z" fill="black"/>
<path d="M157.159 20.156C157.687 20.156 158.131 20.348 158.491 20.732C158.875 21.092 159.067 21.548 159.067 22.1C159.067 22.412 158.995 22.748 158.851 23.108C158.467 23.996 157.927 24.74 157.231 25.34C156.535 25.94 155.767 26.24 154.927 26.24C154.255 26.24 153.679 26 153.199 25.52C152.743 25.04 152.515 24.392 152.515 23.576C152.515 23.12 152.539 22.628 152.587 22.1C152.635 21.716 152.659 21.452 152.659 21.308C152.659 21.116 152.611 20.972 152.515 20.876C152.443 20.78 152.347 20.732 152.227 20.732C151.891 20.732 151.435 21.14 150.859 21.956C150.283 22.748 149.707 23.804 149.131 25.124C148.555 26.444 148.087 27.836 147.727 29.3C147.463 30.452 147.163 31.22 146.827 31.604C146.491 31.988 145.939 32.18 145.171 32.18C144.259 32.18 143.611 31.7 143.227 30.74C142.867 29.78 142.687 28.244 142.687 26.132C142.687 23.012 143.131 20.048 144.019 17.24C144.235 16.544 144.583 16.04 145.063 15.728C145.567 15.392 146.263 15.224 147.151 15.224C147.631 15.224 147.967 15.284 148.159 15.404C148.351 15.524 148.447 15.752 148.447 16.088C148.447 16.472 148.267 17.336 147.907 18.68C147.667 19.64 147.475 20.48 147.331 21.2C147.187 21.92 147.067 22.808 146.971 23.864C147.763 21.8 148.651 20.12 149.635 18.824C150.619 17.528 151.579 16.604 152.515 16.052C153.451 15.5 154.303 15.224 155.071 15.224C155.767 15.224 156.295 15.428 156.655 15.836C157.039 16.22 157.231 16.796 157.231 17.564C157.231 18.02 157.099 18.884 156.835 20.156H157.159Z" fill="black"/>
</svg>
